<?xml version="1.0" encoding="utf-8"?>
<!-- Generator: Adobe Illustrator 22.0.0, SVG Export Plug-In . SVG Version: 6.00 Build 0)  -->
<svg version="1.1" id="Layer_1" xmlns="http://www.w3.org/2000/svg" xmlns:xlink="http://www.w3.org/1999/xlink" x="0px" y="0px"
	 viewBox="0 0 406.9 302.1" style="enable-background:new 0 0 406.9 302.1;" xml:space="preserve">
<style type="text/css">
	.st0{enable-background:new    ;}
	.st1{fill:#13293A;}
</style>
<g id="Agrupar_156" transform="translate(-2.077 -5.913)">
	<g class="st0">
		<path class="st1" d="M217,81.7c0-6.2,4.1-11.1,11.3-11.1c6.2,0,10,3.7,10,9.8S234.5,91,227.1,91C220.7,91,217,87.5,217,81.7z
			 M231.8,81.6c0-5.9-1.5-9-4.3-9c-2.9,0-4.1,3.3-4.1,7.9c0,5.5,1.6,8.3,4.6,8.3C230.8,88.9,231.8,86.6,231.8,81.6z"/>
		<path class="st1" d="M257.5,73.5c0,1.7-0.9,3.2-2.8,3.2c-1.8,0-3-1.4-4.6-1.4c-0.4,0-0.9,0.1-1.4,0.4v5.1c0,6.7,0.4,7.4,4.4,9.6
			c0,0-4.8-0.2-7.4-0.2s-5.7,0.2-5.7,0.2c2.6-2.4,2.9-3.2,2.9-8.4c0-6.2-0.4-7-3.2-9.1l9-2.4l-0.2,4.9h0.1c1.7-3.4,3.9-4.9,5.9-4.9
			C256.1,70.6,257.5,71.4,257.5,73.5z"/>
		<path class="st1" d="M258.6,81.6c0-7.2,4.9-11,11.2-11c1.4,0,2.6,0.2,3.7,0.4c1.1,0.2,2.7,0.3,4.1,0.3c0.7,0,1.4,0,2-0.1
			c0,0-0.1,7.4-0.1,15.8c0,9.7,0.2,10,2.9,12.4c0,0-3.2-0.1-5.6-0.1c-2.8,0-7.6,0.2-7.6,0.2c4.1-2.2,4.3-2.8,4.4-10.3
			c0-1,0-1.8,0-2.5c-2.3,3.2-4.5,4.3-7,4.3C262.2,90.9,258.6,87.8,258.6,81.6z M273.5,73.8c-0.9-0.7-1.8-1.1-3.2-1.1
			c-3.7,0-5.2,2.7-5.2,7.3c0,4.5,1.3,7.1,4.9,7.1c1.2,0,2.2-0.2,3.5-0.8V73.8z"/>
		<path class="st1" d="M284.6,80.7c0-4.9-0.5-5.7-2.9-7.7l9.2-2.4c-0.2,3.2-0.4,5.3-0.4,8.2c0,6.2,0.9,8.1,4,8.1
			c0.7,0,2.1-0.1,3.8-0.5l0-0.5v-4.7c0-5.3-0.7-6.2-3.2-8.2l9.2-2.4c-0.2,3.3-0.2,6.2-0.2,8.7c0,8.2,0.4,8.7,2.8,10.5l-8.5,1.2
			c0-0.6,0-3.7,0.1-4.4h-0.2c-2.5,3.2-4.7,4.4-7.7,4.4c-4.4,0-6.1-2.6-6.1-7.5V80.7z"/>
		<path class="st1" d="M314.7,80.3c0.4,4.8,3.2,6.1,6.4,6.1c2.3,0,4.6-0.7,6.3-1.7c-0.7,2.8-3.9,6.2-8.9,6.2c-5.5,0-10.3-3-10.3-9.7
			c0-6.9,5.2-10.7,10.5-10.7c5.5,0,8.9,3.3,8.9,8.8c0,0.2,0,0.5-0.1,0.7L314.7,80.3z M321.3,77.6c-0.2-2.8-1.1-5.2-3.3-5.2
			c-2.1,0-3.3,2.5-3.4,6.3l6.7-0.2V77.6z"/>
		<path class="st1" d="M330.4,90.2c-0.1-1.8-0.4-5-0.7-7c2.1,3.2,4.7,5.8,7.4,5.8c1.8,0,3.3-1.1,3.3-2.6c0-1.7-2-2.5-5.3-4.3
			c-3.2-1.8-4.7-2.9-4.7-5.5c0-4.3,4.4-6,8.2-6c2,0,4.3,0.5,6.6,0.6c0,1.1-0.1,2.3-0.1,3.4c0,0.7,0,2.5,0,3.2
			c-3-4.1-4.8-5.4-6.4-5.4c-1.3,0-2.8,0.8-2.8,2.4c0,1.2,0.9,1.9,3.7,3.3c2.8,1.4,6.1,2.9,6.1,6.6c0,4.5-5,6.3-8.5,6.3
			C334.8,91,332.4,90.2,330.4,90.2z"/>
		<path class="st1" d="M362.7,86.2c-0.6,2.7-4.8,4.8-7.7,4.8c-3.4,0-5.3-1.5-5.3-6c0-0.6,0-7.3,0.1-11.7H347l9-7.6l-0.2,5.4h7.4
			c0,0.6,0,1.4-0.2,2c-2.5,0.1-4.8,0.2-7.2,0.2v10.1c0,2.5,0.9,4,3.1,4C361,87.3,362.7,86.2,362.7,86.2z"/>
		<path class="st1" d="M381.4,73.5c0,1.7-0.9,3.2-2.8,3.2c-1.8,0-3-1.4-4.6-1.4c-0.4,0-0.9,0.1-1.4,0.4v5.1c0,6.7,0.4,7.4,4.4,9.6
			c0,0-4.8-0.2-7.4-0.2c-2.6,0-5.7,0.2-5.7,0.2c2.6-2.4,2.9-3.2,2.9-8.4c0-6.2-0.4-7-3.2-9.1l9-2.4l-0.2,4.9h0.1
			c1.7-3.4,3.9-4.9,5.9-4.9C380.1,70.6,381.4,71.4,381.4,73.5z"/>
		<path class="st1" d="M393,86.9c-0.8,2-3,4.1-5.9,4.1c-2.5,0-4.9-1.7-4.9-4.7c0-3.8,3.8-5.8,9.4-5.8c0.5,0,0.9,0,1.4,0
			c0.1-0.9,0.1-1.8,0.1-2.2c0-2.5-1.8-3.6-4.3-3.6c-1.7,0-3.5,0.5-5.3,1.4c0.7-3,3.9-5.5,8.1-5.5c3.5,0,7.4,1.8,7.4,6.7
			c0,1.3-0.3,2.8-0.3,5.7c0,3.8,0.5,4.7,3.2,5.8c-1.2,1.4-3.6,2.2-5.2,2.2C394.4,91,393.2,89.4,393,86.9z M393,82.8
			c0-0.6,0-1.4,0.1-2.1c-3.5,0.6-5,2-5,3.9c0,2.2,1.9,2.6,3.4,2.4c0.3,0,0.9-0.1,1.5-0.4c0-0.3,0-0.6,0-0.9
			C392.9,85.2,393,83,393,82.8z"/>
	</g>
	<g class="st0">
		<path class="st1" d="M235.7,121.2c-0.1-1.8-0.4-5-0.7-7c2.1,3.2,4.7,5.8,7.4,5.8c1.8,0,3.3-1.1,3.3-2.6c0-1.7-2-2.5-5.3-4.3
			c-3.2-1.8-4.7-2.9-4.7-5.5c0-4.3,4.4-6,8.2-6c2,0,4.3,0.5,6.6,0.6c0,1.1-0.1,2.3-0.1,3.4c0,0.7,0,2.5,0,3.2
			c-3-4.1-4.8-5.4-6.4-5.4c-1.3,0-2.8,0.8-2.8,2.4c0,1.2,0.9,1.9,3.7,3.3c2.8,1.4,6.1,2.9,6.1,6.6c0,4.5-5,6.3-8.5,6.3
			C240.1,122,237.7,121.2,235.7,121.2z"/>
		<path class="st1" d="M265.3,121.5c0,0-4-0.2-6.8-0.2c-2.4,0-5.6,0.1-5.6,0.1c2.8-2.5,2.9-3.2,2.9-9.3c0-5.3-0.7-6.2-3.2-8.2
			l9.2-2.4c-0.2,3.3-0.2,6.2-0.2,9.5C261.7,118.8,262.1,119.3,265.3,121.5z M260,91.4c1.9,0,3.3,1.5,3.3,3.3c0,2.1-1.9,3.9-4,3.9
			c-1.9,0-3.4-1.4-3.4-3.3C255.9,93.2,257.9,91.4,260,91.4z"/>
		<path class="st1" d="M277.2,121.4c0,0-2.9-0.2-5.5-0.2s-6.1,0.2-6.1,0.2c2.6-2.4,2.9-3.2,2.9-8.4c0-6.2-0.4-7-3.2-9.1l9-2.4
			l-0.2,4.4h0c2.7-3.4,5.5-4.4,8.2-4.4c4,0,5.9,2.5,5.9,7.5c0,8.5,0.1,10.1,2.8,12.4c0,0-4.6-0.2-6.9-0.2s-5.1,0.2-5.1,0.2
			c2.3-2.3,3.2-2.6,3.2-8c0-6-1.2-7.8-4.2-7.8c-0.7,0-2.2,0.1-3.9,0.6v5.7C274.3,118.6,274.4,119.3,277.2,121.4z"/>
		<path class="st1" d="M294.4,101.9c0-1.6,0.3-2.9,1-4c0.7-1.1,1.5-2.1,2.5-2.8c1.1-0.8,2.2-1.3,3.5-1.7c1.3-0.4,2.5-0.6,3.8-0.6
			c0.8,0,1.6,0.1,2.4,0.2c0.8,0.1,1.5,0.3,2.1,0.6c0.6,0.3,1.1,0.6,1.4,1.1c0.4,0.4,0.5,0.9,0.5,1.4c0,0.7-0.2,1.3-0.7,1.9
			c-0.5,0.5-1.1,0.8-1.9,0.8c-0.7,0-1.3-0.2-1.8-0.6c-0.4-0.4-0.8-0.9-1.1-1.4c-0.4-0.5-0.7-1-1.1-1.4c-0.4-0.5-1-0.7-1.7-0.7
			c-0.7,0-1.2,0.2-1.6,0.7s-0.7,1-0.9,1.7c-0.2,0.7-0.3,1.4-0.4,2.2c-0.1,0.8-0.1,1.5-0.1,2.2v0.8h6.7c0,0.4,0,0.7,0,1
			c0,0.4-0.1,0.7-0.1,1c-0.8,0.1-1.8,0.1-2.9,0.1c-1.1,0-2.3,0-3.6,0c0,0.7,0,1.3,0,2.1c0,0.7,0,1.4,0,2.1v1.9v1.4c0,1.6,0,3,0.1,4
			c0,1.1,0.2,1.9,0.5,2.6c0.3,0.7,0.7,1.2,1.4,1.7c0.6,0.4,1.5,0.9,2.6,1.3c-0.9,0-1.8,0-2.7,0c-0.7,0-1.5,0-2.4-0.1
			c-0.8,0-1.6,0-2.2,0c-0.7,0-1.4,0-2.1,0c-0.7,0-1.3,0-1.9,0.1c-0.7,0-1.4,0-2,0c0.7-0.6,1.2-1.2,1.6-1.7c0.4-0.5,0.7-1.2,0.9-2
			c0.2-0.9,0.3-2,0.4-3.4c0-1.4,0-3.3,0-5.7v-4.3l-3.1-0.5l3.1-2.1L294.4,101.9z"/>
		<path class="st1" d="M307.4,112.7c0-6.2,4.1-11.1,11.3-11.1c6.2,0,10,3.7,10,9.8S325,122,317.5,122
			C311.1,122,307.4,118.5,307.4,112.7z M313.8,99.8c-0.6-0.4-0.9-0.5-1.2-1.2l5.8-6.7l5.6,5.5c-0.5,0.8-1.2,1.8-2.1,2.3l-4.3-4.1
			L313.8,99.8z M322.2,112.6c0-5.9-1.5-9-4.3-9c-2.9,0-4.1,3.3-4.1,7.9c0,5.5,1.6,8.3,4.6,8.3C321.2,119.9,322.2,117.6,322.2,112.6z
			"/>
		<path class="st1" d="M342.1,121.4c0,0-2.9-0.2-5.5-0.2c-2.6,0-6.1,0.2-6.1,0.2c2.6-2.4,2.9-3.2,2.9-8.4c0-6.2-0.4-7-3.2-9.1l9-2.4
			L339,106h0c2.7-3.4,5.5-4.4,8.2-4.4c4,0,5.9,2.5,5.9,7.5c0,8.5,0.1,10.1,2.8,12.4c0,0-4.6-0.2-6.9-0.2c-2.2,0-5.1,0.2-5.1,0.2
			c2.3-2.3,3.2-2.6,3.2-8c0-6-1.2-7.8-4.2-7.8c-0.7,0-2.2,0.1-3.9,0.6v5.7C339.2,118.6,339.3,119.3,342.1,121.4z"/>
		<path class="st1" d="M369.2,121.5c0,0-4-0.2-6.8-0.2c-2.4,0-5.6,0.1-5.6,0.1c2.8-2.5,2.9-3.2,2.9-9.3c0-5.3-0.7-6.2-3.2-8.2
			l9.2-2.4c-0.2,3.3-0.2,6.2-0.2,9.5C365.5,118.8,366,119.3,369.2,121.5z M363.9,91.4c1.9,0,3.3,1.5,3.3,3.3c0,2.1-1.9,3.9-4,3.9
			c-1.9,0-3.4-1.4-3.4-3.3C359.7,93.2,361.7,91.4,363.9,91.4z"/>
		<path class="st1" d="M387.6,105.1c0,1.5-1.2,2.7-2.8,2.7c-2.8,0-2-4.1-4.8-4.1c-1.9,0-3.7,2.7-3.7,6.8c0,4.6,2.5,6.9,5.9,6.9
			c1.7,0,3.7-0.6,5.5-1.7c-1.2,4.8-4.8,6.2-8.1,6.2c-4.8,0-9.8-2.7-9.8-9.3c0-7,5.3-11.1,11.3-11.1
			C384.8,101.6,387.6,102.9,387.6,105.1z"/>
		<path class="st1" d="M399.9,117.9c-0.8,2-3,4.1-5.9,4.1c-2.5,0-4.9-1.7-4.9-4.7c0-3.8,3.8-5.8,9.4-5.8c0.5,0,0.9,0,1.4,0
			c0.1-0.9,0.1-1.8,0.1-2.2c0-2.5-1.8-3.6-4.3-3.6c-1.7,0-3.5,0.5-5.3,1.4c0.7-3,3.9-5.5,8.1-5.5c3.5,0,7.4,1.8,7.4,6.7
			c0,1.3-0.3,2.8-0.3,5.7c0,3.8,0.5,4.7,3.2,5.8c-1.2,1.4-3.6,2.2-5.2,2.2C401.4,122,400.2,120.4,399.9,117.9z M399.9,113.8
			c0-0.6,0-1.4,0.1-2.1c-3.5,0.6-5,2-5,3.9c0,2.2,1.9,2.6,3.4,2.4c0.3,0,0.9-0.1,1.5-0.4c0-0.3,0-0.6,0-0.9
			C399.9,116.2,399.9,114,399.9,113.8z"/>
	</g>
	<g class="st0">
		<path class="st1" d="M223.1,148.5c-2.1,3.5-4.7,4.5-7.1,4.5c-4.3,0-7.9-3.1-7.9-9.4c0-7.2,4.9-11,11.4-11c1.5,0,2.6,0.2,3.3,0.5
			c0-4.4-0.5-5.3-3.1-7l9.2-2.4c-0.2,6-0.2,7.3-0.2,13.3c0,12.1,0.1,13,2.8,14.8l-8.5,1.2C223.1,152.4,223.1,149.2,223.1,148.5
			L223.1,148.5z M223,148.2c0-1.7,0-3.6,0-5.1v-7.6c-1.1-0.6-2.1-0.9-3.1-0.9c-2.8,0-5.3,2.3-5.3,7.8c0,4.9,2,6.6,4.8,6.6
			C220.6,149,221.7,148.7,223,148.2z"/>
		<path class="st1" d="M243.1,148.9c-0.8,2-3,4.1-5.9,4.1c-2.5,0-4.9-1.7-4.9-4.7c0-3.8,3.8-5.8,9.4-5.8c0.5,0,0.9,0,1.4,0
			c0.1-0.9,0.1-1.8,0.1-2.2c0-2.5-1.8-3.6-4.3-3.6c-1.7,0-3.5,0.5-5.3,1.4c0.7-3,3.9-5.5,8.1-5.5c3.5,0,7.4,1.8,7.4,6.7
			c0,1.3-0.3,2.8-0.3,5.7c0,3.8,0.5,4.7,3.2,5.8c-1.2,1.4-3.6,2.2-5.2,2.2C244.6,153,243.4,151.4,243.1,148.9z M243.1,144.8
			c0-0.6,0-1.4,0.1-2.1c-3.5,0.6-5,2-5,3.9c0,2.2,1.9,2.6,3.4,2.4c0.3,0,0.9-0.1,1.5-0.4c0-0.3,0-0.6,0-0.9
			C243,147.2,243.1,145,243.1,144.8z"/>
		<path class="st1" d="M283.3,142c0,7.7-5.7,10.9-12.1,10.9c-2.9,0-6.2-0.6-8.8-1.5c0,0,0.2-7.6,0.2-11.7c0-11,0-11.4-3.2-13.6
			l9.2-2.4c-0.1,0.7-0.2,10-0.2,13.3c2.3-3.4,4.5-4.4,7.1-4.4C280.5,132.6,283.3,136.5,283.3,142z M268.5,149.6
			c0.9,0.8,2,1.2,3.2,1.2c2.8,0,5.1-2.2,5.1-7.8c0-4.4-1.5-6.6-4.5-6.6c-0.7,0-2.3,0.1-3.9,0.7v5.7
			C268.4,145,268.4,147.5,268.5,149.6z"/>
		<path class="st1" d="M295.9,148.9c-0.8,2-3,4.1-5.9,4.1c-2.5,0-4.9-1.7-4.9-4.7c0-3.8,3.8-5.8,9.4-5.8c0.5,0,0.9,0,1.4,0
			c0.1-0.9,0.1-1.8,0.1-2.2c0-2.5-1.8-3.6-4.3-3.6c-1.7,0-3.5,0.5-5.3,1.4c0.7-3,3.9-5.5,8.1-5.5c3.5,0,7.4,1.8,7.4,6.7
			c0,1.3-0.3,2.8-0.3,5.7c0,3.8,0.5,4.7,3.2,5.8c-1.2,1.4-3.6,2.2-5.2,2.2C297.4,153,296.2,151.4,295.9,148.9z M295.9,144.8
			c0-0.6,0-1.4,0.1-2.1c-3.5,0.6-5,2-5,3.9c0,2.2,1.9,2.6,3.4,2.4c0.3,0,0.9-0.1,1.5-0.4c0-0.3,0-0.6,0-0.9
			C295.9,147.2,295.9,145,295.9,144.8z"/>
		<path class="st1" d="M313.5,136.8c2.6-3.2,5-4.3,7.8-4.3c4.3,0,6.1,2.5,6.1,7.5c0,8.7,0.1,10.3,2.8,12.4c0,0-4.6-0.2-6.9-0.2
			c-2.2,0-4.9,0.2-4.9,0.2c2.3-2.3,3-2.7,3-7.8c0-6.3-1.1-8-4.2-8c-0.7,0-2.2,0.1-3.9,0.6v5.7c0,6.7,0.1,7.4,3.3,9.6
			c0,0-3.5-0.2-6.3-0.2c-2.4,0-5.7,0.1-5.7,0.1c2.8-2.5,2.9-3.1,2.9-12.8c0-11,0-11.4-3.2-13.6l9.2-2.4
			C313.6,124.5,313.5,135.4,313.5,136.8z"/>
		<path class="st1" d="M343.4,152.5c0,0-4-0.2-6.8-0.2c-2.4,0-5.6,0.1-5.6,0.1c2.8-2.5,2.9-3.2,2.9-9.3c0-5.3-0.7-6.2-3.2-8.2
			l9.2-2.4c-0.2,3.3-0.2,6.2-0.2,9.5C339.8,149.8,340.2,150.3,343.4,152.5z M338.1,122.4c1.9,0,3.3,1.5,3.3,3.3c0,2.1-1.9,3.9-4,3.9
			c-1.9,0-3.4-1.4-3.4-3.3C334,124.2,336,122.4,338.1,122.4z"/>
		<path class="st1" d="M354.4,148.9c-0.8,2-3,4.1-5.9,4.1c-2.5,0-4.9-1.7-4.9-4.7c0-3.8,3.8-5.8,9.4-5.8c0.5,0,0.9,0,1.4,0
			c0.1-0.9,0.1-1.8,0.1-2.2c0-2.5-1.8-3.6-4.3-3.6c-1.7,0-3.5,0.5-5.3,1.4c0.7-3,3.9-5.5,8.1-5.5c3.5,0,7.4,1.8,7.4,6.7
			c0,1.3-0.3,2.8-0.3,5.7c0,3.8,0.5,4.7,3.2,5.8c-1.2,1.4-3.6,2.2-5.2,2.2C355.9,153,354.7,151.4,354.4,148.9z M354.4,144.8
			c0-0.6,0-1.4,0.1-2.1c-3.5,0.6-5,2-5,3.9c0,2.2,1.9,2.6,3.4,2.4c0.3,0,0.9-0.1,1.5-0.4c0-0.3,0-0.6,0-0.9
			C354.4,147.2,354.4,145,354.4,144.8z"/>
	</g>
	<g id="Agrupar_169" transform="translate(2.077 5.913)">
		<g id="Agrupar_169-2" transform="translate(0 0)">
			<path id="Caminho_98" class="st1" d="M62.7,157.4c16.7,0,16.7,25.6,0,25.6S46,157.4,62.7,157.4"/>
			<path id="Caminho_99" class="st1" d="M100,42.8c-23.3,4-42.3,17.6-53,35.6c21.5-9,63.8-7.6,68.8,21.5c3.6,21.4-27.8,26.5-33.8,8
				c7.9-26.1-38-20-33.4,6.8c1.6,5.9,9.3,11.8,23.2,18.3c22.7,10.1,42.3,18.7,47.3,45.1c39-4.5,72.3-39.5,65.4-80.5
				C178.1,60.5,140.3,35.9,100,42.8"/>
			<path id="Caminho_100" class="st1" d="M3.3,0l47.8,302.1l-3.4-0.1L0,0.5L3.3,0z"/>
		</g>
		<path id="Caminho_101" class="st1" d="M47.3,78L34,0.4H19.3l14.6,85.3C38,82.7,42.6,80.1,47.3,78"/>
	</g>
</g>
</svg>
