<svg xmlns="http://www.w3.org/2000/svg" xmlns:xlink="http://www.w3.org/1999/xlink" width="197.705" height="137.81" viewBox="0 0 197.705 137.81"><defs><clipPath id="a"><path d="M80.5-75c7.325,0,7.336,11,0,11s-7.336-11,0-11" clip-rule="evenodd"/></clipPath><clipPath id="b"><path d="M-324,836H1116V-188H-324Z"/></clipPath><clipPath id="c"><path d="M31.6-124c21.14,0,36.8,19.1,29.641,39.242C49.583-55.525,0-61.656,0-94.838,0-110.931,14.151-124,31.6-124" clip-rule="evenodd"/></clipPath><clipPath id="e"><path d="M74-108.8,68.765-137H63l5.707,31A30.211,30.211,0,0,1,74-108.8" clip-rule="evenodd"/></clipPath><clipPath id="g"><path d="M96.583-124.511A32.546,32.546,0,0,0,74-109.4c9.173-3.819,27.2-3.223,29.312,9.144,1.553,9.081-11.851,11.262-14.391,3.4,3.376-11.083-16.18-8.484-14.237,2.895.676,2.493,3.945,5.013,9.889,7.792,9.677,4.284,18.042,7.929,20.16,19.171,16.634-1.928,30.839-16.794,27.873-34.173-2.728-15.8-18.853-26.259-36.023-23.338" clip-rule="evenodd"/></clipPath><clipPath id="i"><path d="M166.278-122a32.217,32.217,0,0,1,25.147,11.747v-9.59H197v55h-5.574V-75.753C184.109-68.415,176.951-64,166.278-64,149.007-64,135-76.98,135-93s14.007-29,31.278-29" clip-rule="evenodd"/></clipPath><clipPath id="k"><path d="M58.352-137.81H85.746V0H58.352Z" clip-rule="evenodd"/></clipPath><clipPath id="m"><rect width="28" height="138" transform="translate(58 -138)"/></clipPath><clipPath id="n"><path d="M59.767-137.81,85.746,0h-1.47L58.352-137.535Z" clip-rule="evenodd"/></clipPath><clipPath id="o"><path d="M58,0H86V-138H58Z"/></clipPath><clipPath id="p"><path d="M84.364-55.973H197.7v18.656H84.364Z" clip-rule="evenodd"/></clipPath><clipPath id="r"><rect width="114" height="19" transform="translate(84 -56)"/></clipPath><clipPath id="s"><path d="M193.3-45.966V-47.03a15.7,15.7,0,0,1-3.725.685,5.123,5.123,0,0,0-2.136.6,1.189,1.189,0,0,0-.524,1.075c0,1.145.768,1.728,2.281,1.728a5.368,5.368,0,0,0,2.621-.6A2.6,2.6,0,0,0,193.3-45.966Zm2.851-3.305v5.231a.554.554,0,0,0,.617.631,5.777,5.777,0,0,0,.932-.069v2.006a11.39,11.39,0,0,1-2.028.262c-1.226,0-1.954-.471-2.14-1.428q-1.564,1.524-5.135,1.525a5.184,5.184,0,0,1-3.28-.915,3.042,3.042,0,0,1-1.167-2.54,2.858,2.858,0,0,1,1.768-2.8,10.383,10.383,0,0,1,3.132-.679,24.379,24.379,0,0,0,3.788-.513.89.89,0,0,0,.728-.877c0-1.048-1.035-1.594-3.095-1.594-1.888,0-2.891.636-2.984,1.846h-2.787a3.942,3.942,0,0,1,1.84-2.974,7.782,7.782,0,0,1,3.931-.813c2.5,0,4.2.439,5.067,1.316A3.166,3.166,0,0,1,196.156-49.271Zm-21.271,7.739V-52.566h2.84v2.15a4.651,4.651,0,0,1,4.159-2.444,7.677,7.677,0,0,1,1.144.107v2.835a5.874,5.874,0,0,0-1.814-.268,3.725,3.725,0,0,0-2.29.7,3.07,3.07,0,0,0-1.2,2.621v5.332Zm-7.5-3.076v-5.878h-2.255v-2.08h2.255v-3.408h2.844v3.408H173.2v2.08h-2.975v5.044a4.537,4.537,0,0,0,.153,1.449.845.845,0,0,0,.879.513H173.3v2.032a15.82,15.82,0,0,1-2.171.166c-1.6,0-2.652-.3-3.158-.888A3.728,3.728,0,0,1,167.382-44.607Zm-14.788-.38h3.085c.071,1.284,1.075,1.92,3.007,1.92a5.893,5.893,0,0,0,2.031-.31c.625-.257.947-.62.947-1.1a.964.964,0,0,0-.624-.941,12.99,12.99,0,0,0-2.918-.631,12.712,12.712,0,0,1-3.87-.914,2.544,2.544,0,0,1-1.295-2.45A3.079,3.079,0,0,1,155-52.384a8.7,8.7,0,0,1,3.421-.594c3.828,0,5.8,1.257,5.919,3.787h-2.967c-.159-1.209-1.191-1.846-3.089-1.846a3.652,3.652,0,0,0-1.811.407c-.444.267-.665.561-.665.877a.914.914,0,0,0,.48.9,10.6,10.6,0,0,0,2.528.524,19.251,19.251,0,0,1,4.3.968,2.5,2.5,0,0,1,1.634,2.471q0,3.771-6.039,3.771C154.718-41.115,152.669-42.4,152.595-44.987Zm-11.708-3.161h7.336a3.192,3.192,0,0,0-1.44-2.268,4.179,4.179,0,0,0-2.24-.62,3.886,3.886,0,0,0-2.154.6A3.539,3.539,0,0,0,140.886-48.148ZM151.2-46.313H140.886a3.228,3.228,0,0,0,.823,2.027,3.739,3.739,0,0,0,2.88,1.092,3.541,3.541,0,0,0,3.266-1.589h3.087a6.449,6.449,0,0,1-6.269,3.669,7.028,7.028,0,0,1-5.231-1.808,5.516,5.516,0,0,1-1.525-4.022,5.616,5.616,0,0,1,1.827-4.386,6.818,6.818,0,0,1,4.741-1.648,6.685,6.685,0,0,1,5.178,1.92,6.129,6.129,0,0,1,1.533,4.322ZM124.137-45.2v-7.37h2.843v6.285a3.479,3.479,0,0,0,.5,2.112,2.738,2.738,0,0,0,2.32.845,3.441,3.441,0,0,0,2.125-.706,2.9,2.9,0,0,0,1.2-2.471v-6.065h2.841v11.034h-2.841v-1.535h-.04a5.155,5.155,0,0,1-4.31,1.952C125.678-41.115,124.137-42.468,124.137-45.2Zm-5.152-5.787v-1.583h2.838v15.248h-2.838V-43.04c-.121.4-.569.8-1.321,1.193a5.808,5.808,0,0,1-2.872.733,5.775,5.775,0,0,1-4.58-1.9A5.8,5.8,0,0,1,108.777-47a5.876,5.876,0,0,1,1.435-3.985,5.775,5.775,0,0,1,4.58-1.878C116.783-52.86,118.175-52.24,118.985-50.982ZM111.753-47a3.776,3.776,0,0,0,.844,2.535,3.515,3.515,0,0,0,2.841,1.139,3.486,3.486,0,0,0,2.828-1.139A3.766,3.766,0,0,0,119.112-47a3.76,3.76,0,0,0-.847-2.53,3.534,3.534,0,0,0-2.828-1.134,3.563,3.563,0,0,0-2.841,1.134A3.77,3.77,0,0,0,111.753-47ZM99.716-41.532V-52.566h2.851v2.15a4.607,4.607,0,0,1,4.151-2.444,7.784,7.784,0,0,1,1.143.107v2.835a5.957,5.957,0,0,0-1.821-.268,3.678,3.678,0,0,0-2.282.7,3.05,3.05,0,0,0-1.191,2.621v5.332Zm-15.352-5.52a5.619,5.619,0,0,1,1.546-4.092,6.968,6.968,0,0,1,5.215-1.834,6.984,6.984,0,0,1,5.213,1.834,5.609,5.609,0,0,1,1.546,4.092,5.643,5.643,0,0,1-1.546,4.113,6.98,6.98,0,0,1-5.213,1.824,6.964,6.964,0,0,1-5.215-1.824A5.653,5.653,0,0,1,84.364-47.051Zm2.968,0a3.777,3.777,0,0,0,.868,2.589,3.637,3.637,0,0,0,2.925,1.139,3.635,3.635,0,0,0,2.923-1.139,3.764,3.764,0,0,0,.868-2.589,3.767,3.767,0,0,0-.868-2.573,3.622,3.622,0,0,0-2.923-1.145A3.624,3.624,0,0,0,88.2-49.624,3.78,3.78,0,0,0,87.332-47.051Z" clip-rule="evenodd"/></clipPath><clipPath id="t"><path d="M84-37H198V-56H84Z"/></clipPath><clipPath id="u"><path d="M94.25-36.655H197.7v15.643H94.25Z" clip-rule="evenodd"/></clipPath><clipPath id="w"><rect width="104" height="16" transform="translate(94 -37)"/></clipPath><clipPath id="x"><path d="M193.271-25.783v-1.035a17.823,17.823,0,0,1-3.752.673,5.194,5.194,0,0,0-2.152.583,1.153,1.153,0,0,0-.528,1.056c0,1.135.773,1.7,2.3,1.7a5.522,5.522,0,0,0,2.64-.594A2.513,2.513,0,0,0,193.271-25.783Zm2.872-3.242V-23.9a.54.54,0,0,0,.621.61,7.1,7.1,0,0,0,.939-.053v1.992a13.1,13.1,0,0,1-2.042.241c-1.235,0-1.968-.478-2.155-1.4-1.05.993-2.778,1.5-5.172,1.5a5.351,5.351,0,0,1-3.3-.9,2.951,2.951,0,0,1-1.176-2.491,2.827,2.827,0,0,1,1.78-2.764,11.233,11.233,0,0,1,3.155-.662,26.266,26.266,0,0,0,3.816-.5.876.876,0,0,0,.733-.862c0-1.04-1.043-1.555-3.117-1.555-1.9,0-2.912.6-3.005,1.8h-2.808a3.855,3.855,0,0,1,1.853-2.932,8.07,8.07,0,0,1,3.96-.788c2.52,0,4.23.436,5.1,1.288A3.069,3.069,0,0,1,196.143-29.025Zm-13.66.568h-2.99a2.288,2.288,0,0,0-1.01-1.445,3.412,3.412,0,0,0-2.042-.6,3.754,3.754,0,0,0-2.91,1.13,3.664,3.664,0,0,0-.914,2.543,3.734,3.734,0,0,0,.834,2.522,3.258,3.258,0,0,0,2.68,1.13,3.723,3.723,0,0,0,2.325-.609,4.291,4.291,0,0,0,1.093-1.771h3a4.792,4.792,0,0,1-3.013,3.962,7.817,7.817,0,0,1-3.093.589,7.125,7.125,0,0,1-5.253-1.8,5.462,5.462,0,0,1-1.552-4.026,5.293,5.293,0,0,1,1.83-4.246,7.3,7.3,0,0,1,4.975-1.587,7.824,7.824,0,0,1,3.434.735A4.491,4.491,0,0,1,182.483-28.457Zm-17.642-5.528H167.7v-2.286h-2.859Zm0,12.564H167.7V-32.262h-2.859Zm-14.318,0V-32.262h2.863v1.634a5.289,5.289,0,0,1,4.357-1.923q4.684,0,4.688,3.778v7.352h-2.858V-27.89q0-2.483-2.763-2.486a3.752,3.752,0,0,0-2.271.694,2.861,2.861,0,0,0-1.152,2.433v5.827Zm-6.917-15.234,2.863,2.906h-2.863l-1.739-1.7-1.728,1.7h-2.861l2.861-2.906Zm-8.546,9.821a5.439,5.439,0,0,1,1.549-4.035,7.146,7.146,0,0,1,5.258-1.8,7.129,7.129,0,0,1,5.253,1.8,5.459,5.459,0,0,1,1.549,4.035,5.461,5.461,0,0,1-1.549,4.026,7.129,7.129,0,0,1-5.253,1.8,7.146,7.146,0,0,1-5.258-1.8A5.441,5.441,0,0,1,135.059-26.834Zm2.989,0a3.624,3.624,0,0,0,.869,2.522,3.692,3.692,0,0,0,2.949,1.13,3.693,3.693,0,0,0,2.949-1.13,3.61,3.61,0,0,0,.864-2.522,3.656,3.656,0,0,0-.864-2.543,3.71,3.71,0,0,0-2.949-1.13,3.71,3.71,0,0,0-2.949,1.13A3.67,3.67,0,0,0,138.049-26.834Zm-9.327,5.413v-8.8h-2.256v-2.044h2.256v-1.387c0-1.86,1.109-2.791,3.3-2.791.835,0,1.686.053,2.576.09v2.044a13.017,13.017,0,0,0-1.471-.079,1.885,1.885,0,0,0-1.24.268,1.31,1.31,0,0,0-.291,1.025v.83h3v2.044h-3v8.8Zm-15.1,0V-32.262h2.859v1.634a5.288,5.288,0,0,1,4.356-1.923q4.688,0,4.693,3.778v7.352h-2.863V-27.89q0-2.483-2.757-2.486a3.686,3.686,0,0,0-2.261.694,2.84,2.84,0,0,0-1.168,2.433v5.827Zm-5.275-12.564h2.864v-2.286h-2.864Zm0,12.564h2.864V-32.262h-2.864Zm-14.095-3.4h3.117c.061,1.267,1.075,1.892,3.026,1.892a6.209,6.209,0,0,0,2.037-.3c.635-.252.955-.615.955-1.093a.937.937,0,0,0-.629-.925,14.123,14.123,0,0,0-2.938-.61,13.288,13.288,0,0,1-3.883-.9,2.489,2.489,0,0,1-1.312-2.4,3.018,3.018,0,0,1,2.053-2.911,8.987,8.987,0,0,1,3.45-.589c3.84,0,5.834,1.235,5.962,3.72h-3c-.16-1.2-1.21-1.8-3.109-1.8a3.681,3.681,0,0,0-1.821.389c-.446.263-.675.552-.675.856a.893.893,0,0,0,.485.888,10.91,10.91,0,0,0,2.544.521,19.833,19.833,0,0,1,4.341.94,2.491,2.491,0,0,1,1.637,2.443c0,2.459-2.027,3.7-6.074,3.7C96.389-21.011,94.335-22.272,94.25-24.821Z" clip-rule="evenodd"/></clipPath><clipPath id="y"><path d="M94-21H198V-37H94Z"/></clipPath><clipPath id="z"><path d="M97.286-15.64H197.7V-1H97.286Z" clip-rule="evenodd"/></clipPath><clipPath id="ab"><rect width="101" height="15" transform="translate(97 -16)"/></clipPath><clipPath id="ac"><path d="M193.248-5.577v-1a17.24,17.24,0,0,1-3.77.646,5.7,5.7,0,0,0-2.162.555,1.146,1.146,0,0,0-.53,1.019c0,1.09.777,1.635,2.309,1.635a5.634,5.634,0,0,0,2.652-.575A2.414,2.414,0,0,0,193.248-5.577Zm2.885-3.114v4.916c0,.4.2.6.624.6a5.254,5.254,0,0,0,.943-.06v1.913a13.864,13.864,0,0,1-2.052.237c-1.241,0-1.977-.459-2.166-1.337-1.055.949-2.791,1.423-5.2,1.423a5.527,5.527,0,0,1-3.319-.858,2.82,2.82,0,0,1-1.181-2.4,2.685,2.685,0,0,1,1.789-2.64,10.818,10.818,0,0,1,3.17-.641,28.352,28.352,0,0,0,3.834-.479c.488-.161.737-.434.737-.828,0-1-1.048-1.5-3.132-1.5-1.91,0-2.925.581-3.02,1.731h-2.821a3.652,3.652,0,0,1,1.862-2.806,8.361,8.361,0,0,1,3.979-.766c2.532,0,4.25.4,5.128,1.231A2.9,2.9,0,0,1,196.134-8.691Zm-17.165-4.754h2.882v-2.2h-2.882Zm0,12.051h2.882V-11.8h-2.882Zm-14.387,0V-15.64h2.875v5.415a5.4,5.4,0,0,1,4.386-1.852q4.7,0,4.7,3.614v7.07h-2.875V-7.581c0-1.615-.926-2.412-2.772-2.412a3.792,3.792,0,0,0-2.267.671,2.692,2.692,0,0,0-1.176,2.341v5.587Zm-5.7-4.184v-1a17.356,17.356,0,0,1-3.778.646,5.8,5.8,0,0,0-2.17.555,1.157,1.157,0,0,0-.522,1.019q0,1.635,2.322,1.635a5.6,5.6,0,0,0,2.645-.575A2.429,2.429,0,0,0,158.885-5.577Zm2.875-3.114v4.916c0,.4.217.6.63.6a5.1,5.1,0,0,0,.937-.06v1.913a13.944,13.944,0,0,1-2.046.237c-1.254,0-1.964-.459-2.165-1.337C158.06-1.474,156.319-1,153.924-1a5.52,5.52,0,0,1-3.333-.858,2.816,2.816,0,0,1-1.165-2.4,2.692,2.692,0,0,1,1.782-2.64,10.774,10.774,0,0,1,3.172-.641A28.041,28.041,0,0,0,158.2-8.02c.493-.161.742-.434.742-.828,0-1-1.037-1.5-3.121-1.5-1.934,0-2.934.581-3.027,1.731h-2.824a3.582,3.582,0,0,1,1.865-2.806,8.341,8.341,0,0,1,3.986-.766c2.523,0,4.233.4,5.12,1.231A2.935,2.935,0,0,1,161.76-8.691Zm-26.923,7.3V-15.64h2.877v5.329c.815-1.171,2.229-1.767,4.26-1.767a6.111,6.111,0,0,1,4.624,1.767,5.354,5.354,0,0,1,1.447,3.75,5.315,5.315,0,0,1-1.447,3.78A6.048,6.048,0,0,1,141.975-1a6.33,6.33,0,0,1-2.918-.682c-.766-.388-1.213-.762-1.342-1.15v1.438Zm6.473-8.6a3.71,3.71,0,0,0-2.861,1.06,3.329,3.329,0,0,0-.852,2.372,3.392,3.392,0,0,0,.852,2.407,3.686,3.686,0,0,0,2.861,1.085,3.663,3.663,0,0,0,2.867-1.085,3.384,3.384,0,0,0,.857-2.407,3.321,3.321,0,0,0-.857-2.372A3.687,3.687,0,0,0,141.31-9.993ZM121.8-5.577v-1a17.278,17.278,0,0,1-3.767.646,5.724,5.724,0,0,0-2.168.555,1.162,1.162,0,0,0-.52,1.019q0,1.635,2.309,1.635a5.637,5.637,0,0,0,2.656-.575A2.42,2.42,0,0,0,121.8-5.577Zm2.885-3.114v4.916c0,.4.206.6.621.6a5.2,5.2,0,0,0,.946-.06v1.913a14.007,14.007,0,0,1-2.055.237c-1.246,0-1.966-.459-2.164-1.337C120.98-1.474,119.244-1,116.841-1a5.5,5.5,0,0,1-3.323-.858,2.8,2.8,0,0,1-1.176-2.4,2.692,2.692,0,0,1,1.79-2.64A10.721,10.721,0,0,1,117.3-7.54a28.234,28.234,0,0,0,3.834-.479c.487-.161.734-.434.734-.828q0-1.5-3.124-1.5c-1.915,0-2.931.581-3.027,1.731h-2.819a3.627,3.627,0,0,1,1.862-2.806,8.371,8.371,0,0,1,3.984-.766c2.526,0,4.239.4,5.131,1.231A2.925,2.925,0,0,1,124.686-8.691ZM110.478-15.64V-1.394h-2.872V-2.832c-.118.388-.568.762-1.334,1.15A6.373,6.373,0,0,1,103.357-1a6.025,6.025,0,0,1-4.625-1.781,5.283,5.283,0,0,1-1.446-3.78,5.32,5.32,0,0,1,1.446-3.75,6.088,6.088,0,0,1,4.625-1.767c2.031,0,3.435.6,4.249,1.767V-15.64ZM100.289-6.561a3.4,3.4,0,0,0,.855,2.407,3.7,3.7,0,0,0,2.877,1.085,3.668,3.668,0,0,0,2.856-1.085,3.425,3.425,0,0,0,.866-2.407,3.362,3.362,0,0,0-.866-2.372,3.692,3.692,0,0,0-2.856-1.06,3.72,3.72,0,0,0-2.877,1.06A3.333,3.333,0,0,0,100.289-6.561Z" clip-rule="evenodd"/></clipPath><clipPath id="ad"><path d="M97,0H198V-16H97Z"/></clipPath></defs><g transform="translate(0 137.81)"><g clip-path="url(#a)"><g clip-path="url(#b)"><path d="M70-59H91V-80H70Z"/></g></g><g clip-path="url(#c)"><g clip-path="url(#b)"><path d="M-5-61H68v-68H-5Z"/></g></g><g clip-path="url(#e)"><g clip-path="url(#b)"><path d="M58-101H79v-41H58Z"/></g></g><g clip-path="url(#g)"><g clip-path="url(#b)"><path d="M69-62h69v-68H69Z"/></g></g><g clip-path="url(#i)"><g clip-path="url(#b)"><path d="M130-59h72v-68H130Z"/></g></g><g clip-path="url(#k)"><g clip-path="url(#b)"><g clip-path="url(#m)"><g clip-path="url(#n)"><g clip-path="url(#o)"><path d="M53.352,5H90.746V-142.81H53.352Z"/></g></g></g></g></g><g clip-path="url(#p)"><g clip-path="url(#b)"><g clip-path="url(#r)"><g clip-path="url(#s)"><g clip-path="url(#t)"><path d="M79.364-32.317H202.7V-60.973H79.364Z"/></g></g></g></g></g><g clip-path="url(#u)"><g clip-path="url(#b)"><g clip-path="url(#w)"><g clip-path="url(#x)"><g clip-path="url(#y)"><path d="M89.25-16.011H202.7V-41.655H89.25Z"/></g></g></g></g></g><g clip-path="url(#z)"><g clip-path="url(#b)"><g clip-path="url(#ab)"><g clip-path="url(#ac)"><g clip-path="url(#ad)"><path d="M92.286,4H202.7V-20.64H92.286Z"/></g></g></g></g></g></g></svg>