<?xml version="1.0" encoding="utf-8"?>
<!-- Generator: Adobe Illustrator 22.0.0, SVG Export Plug-In . SVG Version: 6.00 Build 0)  -->
<svg version="1.1" id="Layer_1" xmlns="http://www.w3.org/2000/svg" xmlns:xlink="http://www.w3.org/1999/xlink" x="0px" y="0px"
	 viewBox="0 0 335 252.9" style="enable-background:new 0 0 335 252.9;" xml:space="preserve">
<style type="text/css">
	.st0{fill:#6665FE;}
	.st1{enable-background:new    ;}
</style>
<g id="Agrupar_157" transform="translate(-2.077 -4.981)">
	<g id="Agrupar_155" transform="translate(2.077 4.981)">
		<path id="Caminho_90" class="st0" d="M52.5,131.7c14,0,14,21.5,0,21.5S38.5,131.7,52.5,131.7"/>
		<path id="Caminho_91" class="st0" d="M83.7,35.8c-19.5,3.3-35.4,14.7-44.3,29.8c18-7.5,53.4-6.4,57.6,18
			c3.1,17.9-23.3,22.2-28.3,6.7c6.6-21.8-31.8-16.7-28,5.7c1.3,4.9,7.7,9.9,19.4,15.4c19,8.4,35.4,15.6,39.6,37.8
			c32.7-3.8,60.6-33.1,54.7-67.4C149.1,50.7,117.4,30,83.7,35.8"/>
		<path id="Caminho_92" class="st0" d="M2.8,0l40,252.9l-2.8-0.1L0,0.4L2.8,0z"/>
	</g>
	<g class="st1">
		<path class="st0" d="M179.3,68.5c0-5.1,3.4-9.1,9.3-9.1c5.1,0,8.2,3,8.2,8s-3.1,8.7-9.2,8.7C182.3,76.1,179.3,73.3,179.3,68.5z
			 M191.5,68.5c0-4.9-1.2-7.4-3.6-7.4c-2.4,0-3.3,2.7-3.3,6.5c0,4.5,1.3,6.8,3.8,6.8C190.6,74.4,191.5,72.5,191.5,68.5z"/>
		<path class="st0" d="M212.5,61.8c0,1.4-0.7,2.6-2.3,2.6c-1.5,0-2.4-1.1-3.7-1.1c-0.4,0-0.7,0.1-1.1,0.4v4.2c0,5.5,0.3,6.1,3.6,7.8
			c0,0-4-0.1-6.1-0.1s-4.7,0.1-4.7,0.1c2.1-2,2.4-2.6,2.4-6.9c0-5.1-0.3-5.8-2.6-7.5l7.4-2l-0.1,4h0.1c1.4-2.8,3.2-4,4.9-4
			C211.4,59.4,212.5,60.1,212.5,61.8z"/>
		<path class="st0" d="M213.5,68.4c0-5.9,4-9,9.2-9c1.2,0,2.1,0.2,3,0.3c0.9,0.2,2.2,0.3,3.4,0.3c0.6,0,1.2,0,1.6-0.1
			c0,0-0.1,6.1-0.1,13c0,8,0.1,8.2,2.4,10.2c0,0-2.6-0.1-4.6-0.1c-2.3,0-6.2,0.1-6.2,0.1c3.4-1.8,3.5-2.3,3.6-8.5c0-0.8,0-1.4,0-2.1
			c-1.9,2.6-3.7,3.5-5.8,3.5C216.4,76.1,213.5,73.5,213.5,68.4z M225.7,62c-0.8-0.6-1.5-0.9-2.7-0.9c-3.1,0-4.3,2.2-4.3,6
			c0,3.7,1.1,5.8,4,5.8c1,0,1.8-0.2,2.9-0.6V62z"/>
		<path class="st0" d="M234.8,67.7c0-4-0.4-4.7-2.4-6.3l7.6-2c-0.2,2.6-0.3,4.4-0.3,6.8c0,5.1,0.7,6.6,3.3,6.6
			c0.6,0,1.8-0.1,3.1-0.4l0-0.4v-3.9c0-4.4-0.5-5.1-2.6-6.7l7.6-2c-0.1,2.7-0.2,5.1-0.2,7.1c0,6.7,0.4,7.1,2.3,8.6l-6.9,1
			c0-0.5,0-3.1,0.1-3.6h-0.1c-2,2.6-3.8,3.6-6.3,3.6c-3.6,0-5-2.1-5-6.2V67.7z"/>
		<path class="st0" d="M259.5,67.4c0.3,3.9,2.6,5,5.2,5c1.9,0,3.8-0.6,5.2-1.4c-0.6,2.3-3.2,5.1-7.3,5.1c-4.5,0-8.4-2.4-8.4-7.9
			c0-5.7,4.3-8.8,8.6-8.8c4.5,0,7.3,2.7,7.3,7.2c0,0.2,0,0.4-0.1,0.6L259.5,67.4z M264.9,65.2c-0.1-2.3-0.9-4.3-2.7-4.3
			c-1.8,0-2.7,2-2.8,5.2l5.5-0.2V65.2z"/>
		<path class="st0" d="M272.4,75.5c-0.1-1.4-0.3-4.1-0.6-5.7c1.7,2.6,3.9,4.7,6,4.7c1.4,0,2.7-0.9,2.7-2.1c0-1.4-1.6-2-4.4-3.6
			c-2.6-1.4-3.8-2.4-3.8-4.5c0-3.6,3.6-5,6.7-5c1.7,0,3.5,0.4,5.4,0.5c0,0.9-0.1,1.9-0.1,2.8c0,0.6,0,2,0,2.6
			c-2.5-3.4-3.9-4.4-5.2-4.4c-1.1,0-2.3,0.7-2.3,2c0,1,0.7,1.5,3.1,2.7c2.3,1.2,5,2.4,5,5.4c0,3.7-4.1,5.2-7,5.2
			C276,76.1,274,75.5,272.4,75.5z"/>
		<path class="st0" d="M298.8,72.2c-0.5,2.2-3.9,3.9-6.3,3.9c-2.8,0-4.3-1.2-4.3-4.9c0-0.5,0-6,0.1-9.6H286l7.4-6.2l-0.2,4.4h6
			c0,0.5,0,1.1-0.1,1.7c-2,0.1-3.9,0.1-5.9,0.1v8.3c0,2.1,0.7,3.3,2.6,3.3C297.4,73.2,298.8,72.2,298.8,72.2z"/>
		<path class="st0" d="M314.2,61.8c0,1.4-0.7,2.6-2.3,2.6c-1.5,0-2.4-1.1-3.7-1.1c-0.4,0-0.7,0.1-1.1,0.4v4.2c0,5.5,0.3,6.1,3.6,7.8
			c0,0-4-0.1-6.1-0.1s-4.7,0.1-4.7,0.1c2.1-2,2.4-2.6,2.4-6.9c0-5.1-0.3-5.8-2.6-7.5l7.4-2l-0.1,4h0.1c1.4-2.8,3.2-4,4.9-4
			C313.1,59.4,314.2,60.1,314.2,61.8z"/>
		<path class="st0" d="M323.7,72.8c-0.7,1.6-2.5,3.4-4.8,3.4c-2,0-4-1.4-4-3.9c0-3.1,3.1-4.7,7.7-4.7c0.4,0,0.8,0,1.2,0
			c0.1-0.8,0.1-1.4,0.1-1.8c0-2-1.5-2.9-3.5-2.9c-1.4,0-2.8,0.4-4.4,1.1c0.6-2.5,3.2-4.5,6.6-4.5c2.9,0,6,1.4,6,5.5
			c0,1.1-0.2,2.3-0.2,4.7c0,3.1,0.4,3.9,2.7,4.7c-1,1.2-2.9,1.8-4.3,1.8C324.9,76.1,323.9,74.9,323.7,72.8z M323.7,69.4
			c0-0.5,0-1.1,0.1-1.7c-2.9,0.5-4.1,1.7-4.1,3.2c0,1.8,1.5,2.1,2.8,2c0.2,0,0.8-0.1,1.2-0.3c0-0.2,0-0.5,0-0.8
			C323.6,71.4,323.7,69.6,323.7,69.4z"/>
	</g>
	<g class="st1">
		<path class="st0" d="M194.6,100.5c-0.1-1.4-0.3-4.1-0.6-5.7c1.7,2.6,3.9,4.7,6,4.7c1.4,0,2.7-0.9,2.7-2.1c0-1.4-1.6-2-4.4-3.6
			c-2.6-1.4-3.8-2.4-3.8-4.5c0-3.6,3.6-5,6.7-5c1.7,0,3.5,0.4,5.4,0.5c0,0.9-0.1,1.9-0.1,2.8c0,0.6,0,2,0,2.6
			c-2.5-3.4-3.9-4.4-5.2-4.4c-1.1,0-2.3,0.7-2.3,2c0,1,0.7,1.5,3.1,2.7c2.3,1.2,5,2.4,5,5.4c0,3.7-4.1,5.2-7,5.2
			C198.2,101.1,196.3,100.5,194.6,100.5z"/>
		<path class="st0" d="M219,100.7c0,0-3.3-0.1-5.6-0.1c-2,0-4.6,0.1-4.6,0.1c2.3-2,2.4-2.6,2.4-7.6c0-4.4-0.5-5.1-2.6-6.7l7.6-2
			c-0.1,2.7-0.1,5.1-0.1,7.8C216,98.5,216.4,98.9,219,100.7z M214.6,76c1.6,0,2.7,1.2,2.7,2.7c0,1.7-1.5,3.2-3.3,3.2
			c-1.6,0-2.8-1.2-2.8-2.7C211.2,77.5,212.9,76,214.6,76z"/>
		<path class="st0" d="M228.7,100.7c0,0-2.4-0.1-4.5-0.1c-2.1,0-5,0.1-5,0.1c2.1-2,2.4-2.6,2.4-6.9c0-5.1-0.3-5.8-2.6-7.5l7.4-2
			l-0.1,3.6h0c2.2-2.8,4.5-3.6,6.7-3.6c3.3,0,4.8,2,4.9,6.2c0,7,0.1,8.3,2.3,10.1c0,0-3.8-0.1-5.6-0.1c-1.8,0-4.2,0.1-4.2,0.1
			c1.9-1.9,2.7-2.1,2.7-6.6c0-5-1-6.4-3.4-6.4c-0.6,0-1.8,0.1-3.2,0.5v4.6C226.3,98.4,226.4,99,228.7,100.7z"/>
		<path class="st0" d="M242.8,84.6c0-1.3,0.3-2.4,0.8-3.3c0.5-0.9,1.2-1.7,2-2.3c0.9-0.6,1.8-1.1,2.8-1.4c1.1-0.3,2.1-0.5,3.1-0.5
			c0.7,0,1.3,0.1,2,0.2c0.6,0.1,1.2,0.3,1.7,0.5c0.5,0.2,0.9,0.5,1.1,0.9c0.3,0.3,0.4,0.7,0.4,1.2c0,0.6-0.2,1.1-0.6,1.5
			s-0.9,0.7-1.6,0.7c-0.6,0-1.1-0.2-1.4-0.5c-0.4-0.4-0.6-0.8-0.9-1.2c-0.3-0.4-0.6-0.8-0.9-1.2c-0.4-0.4-0.8-0.5-1.4-0.5
			c-0.5,0-1,0.2-1.3,0.5c-0.3,0.4-0.5,0.8-0.7,1.4c-0.2,0.5-0.3,1.1-0.3,1.8c-0.1,0.6-0.1,1.2-0.1,1.8v0.7h5.5c0,0.3,0,0.5,0,0.8
			c0,0.3-0.1,0.5-0.1,0.8c-0.7,0.1-1.5,0.1-2.4,0.1c-0.9,0-1.9,0-2.9,0c0,0.5,0,1.1,0,1.7c0,0.6,0,1.2,0,1.7v1.6v1.2
			c0,1.3,0,2.5,0.1,3.3c0,0.9,0.2,1.6,0.4,2.1c0.2,0.6,0.6,1,1.1,1.4c0.5,0.4,1.2,0.7,2.1,1.1c-0.8,0-1.5,0-2.2,0
			c-0.6,0-1.2,0-2-0.1c-0.7,0-1.3,0-1.8,0s-1.1,0-1.7,0c-0.5,0-1.1,0-1.6,0.1c-0.6,0-1.1,0-1.6,0c0.6-0.5,1-1,1.3-1.4
			c0.3-0.4,0.5-1,0.7-1.6c0.2-0.7,0.3-1.6,0.3-2.8c0-1.2,0-2.7,0-4.7v-3.5l-2.5-0.4L242.8,84.6L242.8,84.6z"/>
		<path class="st0" d="M253.5,93.5c0-5.1,3.4-9.1,9.3-9.1c5.1,0,8.2,3,8.2,8s-3.1,8.7-9.2,8.7C256.5,101.1,253.5,98.3,253.5,93.5z
			 M258.8,83c-0.5-0.3-0.8-0.4-1-1l4.8-5.5l4.6,4.5c-0.4,0.6-1,1.4-1.8,1.9l-3.5-3.3L258.8,83z M265.7,93.5c0-4.9-1.2-7.4-3.6-7.4
			c-2.4,0-3.3,2.7-3.3,6.5c0,4.5,1.3,6.8,3.8,6.8C264.8,99.4,265.7,97.5,265.7,93.5z"/>
		<path class="st0" d="M282,100.7c0,0-2.4-0.1-4.5-0.1s-5,0.1-5,0.1c2.1-2,2.4-2.6,2.4-6.9c0-5.1-0.3-5.8-2.6-7.5l7.4-2l-0.1,3.6h0
			c2.2-2.8,4.5-3.6,6.7-3.6c3.3,0,4.8,2,4.9,6.2c0,7,0.1,8.3,2.3,10.1c0,0-3.8-0.1-5.6-0.1s-4.2,0.1-4.2,0.1
			c1.9-1.9,2.7-2.1,2.7-6.6c0-5-1-6.4-3.4-6.4c-0.6,0-1.8,0.1-3.2,0.5v4.6C279.6,98.4,279.6,99,282,100.7z"/>
		<path class="st0" d="M304.2,100.7c0,0-3.3-0.1-5.6-0.1c-2,0-4.6,0.1-4.6,0.1c2.3-2,2.4-2.6,2.4-7.6c0-4.4-0.5-5.1-2.6-6.7l7.6-2
			c-0.1,2.7-0.1,5.1-0.1,7.8C301.2,98.5,301.5,98.9,304.2,100.7z M299.8,76c1.6,0,2.7,1.2,2.7,2.7c0,1.7-1.5,3.2-3.3,3.2
			c-1.6,0-2.8-1.2-2.8-2.7C296.4,77.5,298,76,299.8,76z"/>
		<path class="st0" d="M319.3,87.3c0,1.2-1,2.2-2.3,2.2c-2.3,0-1.6-3.4-3.9-3.4c-1.5,0-3,2.2-3,5.6c0,3.8,2,5.7,4.8,5.7
			c1.4,0,3-0.5,4.5-1.4c-1,4-3.9,5.1-6.6,5.1c-3.9,0-8-2.2-8-7.6c0-5.7,4.4-9.1,9.3-9.1C317,84.4,319.3,85.5,319.3,87.3z"/>
		<path class="st0" d="M329.4,97.8c-0.7,1.6-2.5,3.4-4.8,3.4c-2,0-4-1.4-4-3.9c0-3.1,3.1-4.7,7.7-4.7c0.4,0,0.8,0,1.2,0
			c0.1-0.8,0.1-1.4,0.1-1.8c0-2-1.5-2.9-3.5-2.9c-1.4,0-2.8,0.4-4.4,1.1c0.6-2.5,3.2-4.5,6.6-4.5c2.9,0,6,1.4,6,5.5
			c0,1.1-0.2,2.3-0.2,4.7c0,3.1,0.4,3.9,2.7,4.7c-1,1.2-2.9,1.8-4.3,1.8C330.6,101.1,329.6,99.9,329.4,97.8z M329.4,94.4
			c0-0.5,0-1.1,0.1-1.7c-2.9,0.5-4.1,1.7-4.1,3.2c0,1.8,1.5,2.1,2.8,2c0.2,0,0.8-0.1,1.2-0.3c0-0.2,0-0.5,0-0.8
			C329.3,96.4,329.4,94.6,329.4,94.4z"/>
	</g>
	<g class="st1">
		<path class="st0" d="M184.3,122.4c-1.8,2.9-3.9,3.7-5.8,3.7c-3.5,0-6.5-2.5-6.5-7.7c0-5.9,4-9.1,9.4-9.1c1.2,0,2.1,0.2,2.7,0.4
			c0-3.6-0.4-4.4-2.5-5.7l7.6-2c-0.2,4.9-0.2,6-0.2,10.9c0,9.9,0.1,10.7,2.3,12.1l-6.9,1C184.3,125.6,184.3,123,184.3,122.4
			L184.3,122.4z M184.2,122.2c0-1.4,0-2.9,0-4.2v-6.2c-0.9-0.5-1.7-0.7-2.5-0.7c-2.3,0-4.4,1.9-4.4,6.4c0,4,1.6,5.4,3.9,5.4
			C182.2,122.9,183.1,122.6,184.2,122.2z"/>
		<path class="st0" d="M200.7,122.8c-0.7,1.6-2.5,3.4-4.8,3.4c-2,0-4-1.4-4-3.9c0-3.1,3.1-4.7,7.7-4.7c0.4,0,0.8,0,1.2,0
			c0.1-0.8,0.1-1.4,0.1-1.8c0-2-1.5-2.9-3.5-2.9c-1.4,0-2.8,0.4-4.4,1.1c0.6-2.5,3.2-4.5,6.6-4.5c2.9,0,6,1.4,6,5.5
			c0,1.1-0.2,2.3-0.2,4.7c0,3.1,0.4,3.9,2.7,4.7c-1,1.2-2.9,1.8-4.3,1.8C201.9,126.1,200.9,124.9,200.7,122.8z M200.7,119.4
			c0-0.5,0-1.1,0.1-1.7c-2.9,0.5-4.1,1.7-4.1,3.2c0,1.8,1.5,2.1,2.8,2c0.2,0,0.8-0.1,1.2-0.3c0-0.2,0-0.5,0-0.8
			C200.7,121.4,200.7,119.6,200.7,119.4z"/>
		<path class="st0" d="M233.7,117.1c0,6.3-4.6,8.9-10,8.9c-2.4,0-5.1-0.5-7.2-1.2c0,0,0.1-6.2,0.1-9.6c0-9.1,0-9.4-2.6-11.1l7.6-2
			c-0.1,0.6-0.1,8.2-0.2,10.9c1.9-2.8,3.7-3.6,5.8-3.6C231.4,109.4,233.7,112.6,233.7,117.1z M221.6,123.3c0.7,0.6,1.6,1,2.6,1
			c2.3,0,4.2-1.8,4.2-6.4c0-3.6-1.2-5.4-3.7-5.4c-0.6,0-1.9,0.1-3.2,0.6v4.7C221.5,119.6,221.5,121.6,221.6,123.3z"/>
		<path class="st0" d="M244.1,122.8c-0.7,1.6-2.5,3.4-4.8,3.4c-2,0-4-1.4-4-3.9c0-3.1,3.1-4.7,7.7-4.7c0.4,0,0.8,0,1.2,0
			c0.1-0.8,0.1-1.4,0.1-1.8c0-2-1.5-2.9-3.5-2.9c-1.4,0-2.8,0.4-4.4,1.1c0.6-2.5,3.2-4.5,6.6-4.5c2.9,0,6,1.4,6,5.5
			c0,1.1-0.2,2.3-0.2,4.7c0,3.1,0.4,3.9,2.7,4.7c-1,1.2-2.9,1.8-4.3,1.8C245.3,126.1,244.3,124.9,244.1,122.8z M244.1,119.4
			c0-0.5,0-1.1,0.1-1.7c-2.9,0.5-4.1,1.7-4.1,3.2c0,1.8,1.5,2.1,2.8,2c0.2,0,0.8-0.1,1.2-0.3c0-0.2,0-0.5,0-0.8
			C244,121.4,244.1,119.6,244.1,119.4z"/>
		<path class="st0" d="M258.5,112.9c2.1-2.6,4.1-3.5,6.4-3.5c3.6,0,5,2,5,6.2c0,7.2,0.1,8.4,2.3,10.1c0,0-3.8-0.1-5.6-0.1
			c-1.8,0-4,0.1-4,0.1c1.9-1.9,2.5-2.2,2.5-6.4c0-5.2-0.9-6.6-3.4-6.6c-0.6,0-1.8,0.1-3.2,0.5v4.6c0,5.5,0.1,6.1,2.7,7.8
			c0,0-2.8-0.1-5.2-0.1c-2,0-4.7,0.1-4.7,0.1c2.3-2,2.4-2.5,2.4-10.5c0-9.1,0-9.4-2.6-11.1l7.6-2
			C258.6,102.8,258.5,111.8,258.5,112.9z"/>
		<path class="st0" d="M283,125.7c0,0-3.3-0.1-5.6-0.1c-2,0-4.6,0.1-4.6,0.1c2.3-2,2.4-2.6,2.4-7.6c0-4.4-0.5-5.1-2.6-6.7l7.6-2
			c-0.1,2.7-0.1,5.1-0.1,7.8C280.1,123.5,280.4,123.9,283,125.7z M278.7,101c1.6,0,2.7,1.2,2.7,2.7c0,1.7-1.5,3.2-3.3,3.2
			c-1.6,0-2.8-1.2-2.8-2.7C275.3,102.5,276.9,101,278.7,101z"/>
		<path class="st0" d="M292.1,122.8c-0.7,1.6-2.5,3.4-4.8,3.4c-2,0-4-1.4-4-3.9c0-3.1,3.1-4.7,7.7-4.7c0.4,0,0.8,0,1.2,0
			c0.1-0.8,0.1-1.4,0.1-1.8c0-2-1.5-2.9-3.5-2.9c-1.4,0-2.8,0.4-4.4,1.1c0.6-2.5,3.2-4.5,6.6-4.5c2.9,0,6,1.4,6,5.5
			c0,1.1-0.2,2.3-0.2,4.7c0,3.1,0.4,3.9,2.7,4.7c-1,1.2-2.9,1.8-4.3,1.8C293.3,126.1,292.3,124.9,292.1,122.8z M292.1,119.4
			c0-0.5,0-1.1,0.1-1.7c-2.9,0.5-4.1,1.7-4.1,3.2c0,1.8,1.5,2.1,2.8,2c0.2,0,0.8-0.1,1.2-0.3c0-0.2,0-0.5,0-0.8
			C292,121.4,292.1,119.6,292.1,119.4z"/>
	</g>
</g>
</svg>
